<svg width="131" height="139" viewBox="0 0 131 139" fill="none" xmlns="http://www.w3.org/2000/svg">
<path d="M21.1006 10.4604C20.2153 9.57506 18.961 9.35372 18.4446 9.35372C17.067 8.99958 14.7719 10.3866 13.7965 11.1244C11.288 13.8543 5.47417 19.9337 2.2869 22.4127C-0.900363 24.8916 -0.0740344 28.4626 0.737538 29.9381C9.59105 42.1855 25.6752 63.3033 30.3968 69.3363C32.4091 71.9075 33.422 73.2635 32.1675 76.6404C23.4616 88.5189 5.38563 113.117 2.72958 116.481C0.0735228 119.846 0.737537 123.195 1.40155 124.449C4.72162 127.917 12.07 135.428 14.9032 137.73C17.7363 140.032 20.8055 138.689 21.986 137.73C40.9473 119.064 79.4453 81.0229 81.7472 78.1898C84.0491 75.3567 83.0015 72.435 82.1899 71.3283C62.1957 51.4079 21.986 11.3458 21.1006 10.4604Z" fill="#F2F2F7"/>
<path d="M128.238 14.7767L115.179 1.49642C111.815 -0.982563 109.35 0.168394 108.539 1.05375C98.1359 11.3091 76.5776 32.5723 73.5674 35.5825C70.5572 38.5927 71.1327 42.0013 71.7967 43.3293C82.7898 54.7651 105.706 78.2564 109.424 80.7354C113.143 83.2144 115.548 81.7683 116.286 80.7354C119.311 77.858 126.069 71.3949 128.902 68.5618C131.735 65.7287 130.525 62.5119 129.566 61.2577C124.696 55.5766 114.825 43.772 114.294 42.0013C113.762 40.2306 114.515 38.1647 114.958 37.3532L128.238 21.4168C130.009 18.4066 128.976 15.7358 128.238 14.7767Z" fill="#F2F2F7"/>
</svg>
